<svg xmlns="http://www.w3.org/2000/svg" xmlns:xlink="http://www.w3.org/1999/xlink" xmlns:lucid="lucid" width="1631" height="1313.25"><g transform="translate(1301.3333333333335 707.4214127604165)" lucid:page-tab-id="0_0"><path d="M-1500-1000H500v2000h-2000z" fill="#fff"/><path d="M-1300.33-653.17a6 6 0 0 1 6-6h1617a6 6 0 0 1 6 6v1252a6 6 0 0 1-6 6h-1617a6 6 0 0 1-6-6z" stroke="#3a414a" stroke-width="2" fill="#fff"/><path d="M-1300.33-701.42a6 6 0 0 1 6-6h214.87a6 6 0 0 1 6 6v24.25a6 6 0 0 1-6 6h-214.87a6 6 0 0 1-6-6z" fill="#3a414a"/><use xlink:href="#a" transform="matrix(1,0,0,1,-1292.3333333333335,-699.4214127604165) translate(0 16.589501953125)"/><use xlink:href="#b" transform="matrix(1,0,0,1,-1292.3333333333335,-699.4214127604165) translate(42.544775390625006 16.589501953125)"/><use xlink:href="#c" transform="matrix(1,0,0,1,-1292.3333333333335,-699.4214127604165) translate(84.60729492187502 16.589501953125)"/><use xlink:href="#d" transform="matrix(1,0,0,1,-1292.3333333333335,-699.4214127604165) translate(173.49767578125002 16.589501953125)"/><path d="M-753.33-567.17h1020v1080h-1020z" stroke="#242f3e" stroke-width="3" fill="#fff" fill-opacity="0"/><path d="M-753.33-567.17h56v56h-56v-56z" stroke="#fff" stroke-opacity="0" fill="#242f3e"/><path d="M-735.1-541.3c-.05.48.03.88.15 1.34.13.38.3.7.5 1.07.04.1.08.22.08.35 0 .2-.12.35-.3.44l-.93.6c-.13.1-.25.14-.37.14-.17 0-.33-.07-.45-.2-.2-.22-.37-.43-.54-.7-.16-.25-.28-.53-.45-.87-1.12 1.38-2.64 2.1-4.4 2.06-1.15.06-2.14-.3-2.96-1.08-.78-.78-1.15-1.75-1.1-2.85-.05-1.22.4-2.28 1.35-3.08 1.05-.84 2.3-1.22 3.64-1.15.58 0 1.03.03 1.6.1.58.1 1.1.2 1.73.34v-1.1c.08-.88-.17-1.66-.7-2.37-.74-.56-1.56-.78-2.46-.7-.53 0-1.02.07-1.6.2-.57.14-1.02.3-1.6.52l-.5.2h-.24c-.2 0-.32-.18-.32-.47v-.75c0-.18.04-.33.12-.5.12-.15.25-.25.4-.32.67-.3 1.2-.5 1.9-.67.78-.2 1.48-.3 2.3-.28 1.48-.13 2.8.27 3.9 1.2.94 1.05 1.35 2.3 1.23 3.68zm-6.1 2.28c.6 0 1.08-.08 1.62-.28.57-.2 1.02-.5 1.43-.96.25-.28.4-.57.5-.94.12-.45.16-.84.16-1.3v-.66c-.52-.1-.93-.17-1.43-.22h-1.4c-.82-.07-1.55.13-2.2.6-.55.44-.8 1.03-.75 1.72-.04.6.12 1.16.53 1.6.46.37 1 .5 1.56.44zm12 1.6c-.2.02-.4-.02-.57-.15-.16-.17-.25-.35-.33-.6l-3.5-11.5-.1-.62c0-.23.1-.36.36-.36h1.48c.2 0 .36.03.57.14.17.2.26.37.3.6l2.5 9.96 2.38-9.94c0-.24.1-.43.3-.6.16-.1.36-.16.57-.14h1.2c.23-.02.4.03.6.14.17.18.25.36.3.6l2.33 9.94 2.55-10c.04-.22.16-.4.32-.58.17-.12.38-.17.58-.14h1.4c.16-.02.33.1.37.3v.3s0 .2-.13.37l-3.6 11.5c-.05.24-.13.43-.3.6-.2.1-.37.16-.57.14h-1.28c-.24.03-.45-.03-.6-.15-.18-.18-.26-.38-.3-.6l-2.3-9.6-2.3 9.6c-.04.22-.12.42-.3.6-.2.1-.4.17-.6.14zm19.22.38c-.82 0-1.52-.07-2.3-.25-.65-.12-1.15-.3-1.72-.58-.2-.1-.37-.24-.46-.42-.08-.14-.12-.28-.12-.44v-.74c0-.3.13-.47.33-.47h.3l.36.16c.58.25 1.03.4 1.6.5.63.15 1.16.2 1.82.2.78.07 1.47-.1 2.17-.48.5-.3.77-.82.73-1.4.04-.4-.12-.76-.37-1.05-.45-.4-.94-.64-1.52-.78l-2.17-.7c-.95-.25-1.73-.73-2.38-1.5-.5-.65-.75-1.36-.75-2.18 0-.6.12-1.1.4-1.6.3-.5.62-.9 1.07-1.23.5-.4 1-.6 1.6-.78.66-.2 1.2-.27 1.9-.26.32-.02.6-.02.98 0l1 .16.8.24.66.25c.17.12.3.24.45.4.1.14.14.3.14.48v.7c0 .33-.13.48-.37.48-.2-.02-.37-.08-.58-.18-.95-.42-1.8-.6-2.88-.58-.7-.04-1.32.1-1.97.4-.5.3-.74.8-.7 1.36 0 .4.12.76.45 1.06.5.4 1 .64 1.6.8l2.1.7c.94.22 1.68.7 2.3 1.42.5.63.7 1.3.7 2.1 0 .63-.13 1.16-.37 1.72-.3.55-.62.96-1.1 1.32-.5.4-1 .66-1.6.85-.75.24-1.4.33-2.15.35zM-707.23-529.68c-5.6 3.8-11.36 5.57-18.15 5.55-8.55.05-15.83-2.73-22.16-8.45-.5-.4 0-1 .5-.67 7.06 4.06 14 5.9 22.2 5.9 6.08-.04 11.27-1.1 16.92-3.47.82-.34 1.5.55.7 1.14z" stroke="#fff" stroke-opacity="0" fill="#fff"/><path d="M-705.17-531.97c-.64-.8-4.16-.38-5.75-.2-.48 0-.54-.36-.1-.66 2.8-1.97 7.4-1.4 8-.74.58.67-.16 5.3-2.8 7.5-.4.33-.77.14-.6-.3.55-1.52 1.87-4.83 1.25-5.6z" stroke="#fff" stroke-opacity="0" fill="#fff"/><use xlink:href="#e" transform="matrix(1,0,0,1,-682.3333333333335,-547.1666666666665) translate(0 21.52777777777778)"/><use xlink:href="#f" transform="matrix(1,0,0,1,-682.3333333333335,-547.1666666666665) translate(56.477864583333336 21.52777777777778)"/><path d="M-723.33-507.17h120v120h-120v-120z" stroke="#000" stroke-opacity="0" fill="#8c4fff"/><path d="M-640.65-429.02c0-2.44-2.02-4.46-4.54-4.46-2.42 0-4.44 2.02-4.44 4.46 0 2.52 2 4.53 4.45 4.53 2.53 0 4.55-2 4.55-4.52zm3.02 0c0 4.2-3.36 7.56-7.56 7.56-4.1 0-7.46-3.36-7.46-7.56 0-4.12 3.36-7.48 7.47-7.48 4.2 0 7.57 3.36 7.57 7.48zm-40.15-21.6c0-2.5-2.02-4.53-4.45-4.53-2.52 0-4.54 2.02-4.54 4.54 0 2.43 2.02 4.44 4.54 4.44 2.43 0 4.45-2 4.45-4.45zm3.02 0c0 4.13-3.36 7.5-7.47 7.5-4.12 0-7.48-3.38-7.48-7.5 0-4.1 3.35-7.55 7.47-7.55 4.1 0 7.47 3.44 7.47 7.56zm11-23.5c0 2.43 2.02 4.44 4.54 4.44 2.44 0 4.46-2 4.46-4.45 0-2.52-2.02-4.54-4.46-4.54-2.52 0-4.53 2.02-4.53 4.54zm-3.02 0c0-4.2 3.45-7.57 7.56-7.57 4.12 0 7.48 3.37 7.48 7.57 0 4.12-3.36 7.48-7.48 7.48-4.1 0-7.56-3.37-7.56-7.48zm42.42 26.95c0-13.94-7.47-26.8-19.5-33.76-2.1.5-4.18 1.1-6.8 2l-1-2.84c1.35-.5 2.52-.85 3.7-1.18-4.8-2.1-10.08-3.2-15.37-3.2-2.52 0-5.04.26-7.48.76 1.75 1.02 3.35 2.03 4.86 3.2l-1.84 2.36c-2.1-1.6-4.37-2.94-7.23-4.54-14.8 4.62-25.38 17.64-27.06 32.93 3.1-.67 6.05-1 9.33-1.1l.08 3.03c-3.44.08-6.38.42-9.66 1.18v1.17c0 13.02 6.38 24.95 16.96 32.18-1.85-5.62-2.86-10.92-2.86-16.04 0-2.94.6-5.38 1.1-7.9.08-.67.25-1.25.33-1.84l2.94.58c-.08.6-.25 1.26-.33 1.85-.5 2.52-1 4.7-1 7.3 0 5.9 1.25 11.94 3.93 18.5 5.55 2.93 11.6 4.36 17.9 4.36 4.1 0 8.15-.66 12-1.92 1.52-2.94 2.6-5.8 3.62-9l2.85.85c-.67 2.35-1.5 4.45-2.44 6.63 2.45-1.1 4.7-2.43 6.9-4.03-.5-1.26-1.1-2.52-1.68-3.78l2.7-1.34c.5 1.1 1 2.2 1.4 3.2 8.67-7.4 13.62-18.06 13.62-29.57zm3.03 0c0 13.1-5.97 25.2-16.3 33.27-2.6 1.93-5.38 3.6-8.32 4.95-1.25.6-2.5 1.1-3.86 1.5-4.3 1.53-8.83 2.28-13.53 2.28-6.9 0-13.78-1.68-19.83-4.95-13.7-7.3-22.17-21.5-22.17-37.05 0-1 0-1.84.08-2.52 1-17.54 13.02-32.66 29.9-37.7 3.87-1.18 7.9-1.77 12.02-1.77 7.22 0 14.28 1.85 20.5 5.38 13.26 7.4 21.5 21.43 21.5 36.63zM-667.36-469c-3.1 2.76-5.63 5.7-8.5 10.16l-2.5-1.6c3-4.7 5.7-7.9 9.06-10.75l1.93 2.2zm-4.54 19.48c7.3 2.52 13.7 6.47 20 12.52l-2.1 2.18c-5.97-5.7-12.02-9.5-18.9-11.84l1-2.86zm20.07-17.64c5.63 8.57 8.74 17.98 9.4 27.97l-3 .26c-.6-9.5-3.62-18.48-8.92-26.54l2.52-1.68z" stroke="#000" stroke-opacity="0" fill="#fff"/><use xlink:href="#g" transform="matrix(1,0,0,1,-753.3333333333335,-378.1666666666665) translate(47.16145833333334 21.52777777777778)"/><use xlink:href="#h" transform="matrix(1,0,0,1,-753.3333333333335,-378.1666666666665) translate(32.06271701388889 53.79340277777778)"/><path d="M-303.33-507.17h120v120h-120v-120z" stroke="#000" stroke-opacity="0" fill="#7aa116"/><path d="M-212.1-442.8l.57-4.12c5.33 3.2 5.4 4.54 5.4 4.54s-.96.76-5.97-.42zm-2.9-.84c-9.2-2.77-21.97-8.65-27.14-11.1v-.07c0-1.94-1.62-3.62-3.64-3.62-2 0-3.63 1.68-3.63 3.6 0 2.02 1.6 3.62 3.63 3.62.88 0 1.7-.34 2.26-.84 6.12 2.86 18.8 8.65 28.1 11.43l-3.72 25.77v.25c0 2.27-10.1 6.4-26.5 6.4-16.63 0-26.8-4.13-26.8-6.4v-.25l-7.68-55.77c6.63 4.53 20.84 6.97 34.5 6.97 13.56 0 27.77-2.44 34.4-6.97l-3.8 26.96zm-65.9-32.84c.16-1.94 11.46-9.66 35.3-9.66 23.8 0 35.12 7.72 35.28 9.66v.67c-1.37 4.44-16.07 9.15-35.3 9.15-19.3 0-34-4.7-35.28-9.16v-.68zm73.57.08c0-5.2-14.94-12.77-38.28-12.77-23.35 0-38.3 7.56-38.3 12.77l.17 1.1 8.32 60.8c.15 6.8 18.32 9.33 29.8 9.33 14.2 0 29.3-3.27 29.46-9.32l3.64-25.36c2.02.5 3.63.76 4.93.76 1.77 0 2.98-.42 3.7-1.35.66-.67.82-1.5.66-2.43-.34-2.1-2.84-4.37-7.85-7.23l3.56-25.12.17-1.18z" stroke="#000" stroke-opacity="0" fill="#fff"/><use xlink:href="#i" transform="matrix(1,0,0,1,-333.3333333333335,-378.1666666666665) translate(30.04448784722223 21.52777777777778)"/><use xlink:href="#j" transform="matrix(1,0,0,1,-333.3333333333335,-378.1666666666665) translate(121.97157118055554 21.52777777777778)"/><use xlink:href="#k" transform="matrix(1,0,0,1,-333.3333333333335,-378.1666666666665) translate(29.339192708333343 53.79340277777778)"/><use xlink:href="#l" transform="matrix(1,0,0,1,-333.3333333333335,-378.1666666666665) translate(103.15646701388889 53.79340277777778)"/><path d="M-723.33-87.17h120v120h-120v-120z" stroke="#000" stroke-opacity="0" fill="#8c4fff"/><path d="M-672.24-3.73h4.37v-3.02h-4.37v3.02zm7.4 0h4.53v-3.02h-4.55v3.02zm-17.98-61.5l-19.5 9.67V4.6l19.5 6.62v-76.44zm3.02 19.16v39.31h4.45v3.03h-4.45v17.05c0 .5-.25.92-.67 1.26-.25.17-.6.25-.84.25-.18 0-.35 0-.5-.08l-22.53-7.64c-.58-.16-1-.75-1-1.42v-62.16c0-.6.33-1.1.84-1.35L-681.97-69c.42-.25 1-.25 1.43.08.42.26.75.76.75 1.27v18.56h4.45v3.03h-4.45zm22.43 42.34h4.54v-3.02h-4.54v3.02zm.17-42.34h4.37v-3.02h-4.37v3.03zm-7.56 0h4.45v-3.02h-4.46v3.03zm-7.48 0h4.37v-3.02h-4.37v3.03zm47.88-9.5l-19.5-9.65v76.44l19.5-6.64v-60.14zm3.03 61.25c0 .67-.42 1.26-1 1.43l-22.52 7.65c-.17.08-.34.08-.5.08-.26 0-.6-.08-.85-.25-.42-.34-.67-.76-.67-1.26V-3.73h-2.86v-3.02h2.86v-39.32h-2.86v-3.02h2.86v-18.55c0-.5.34-1 .76-1.27.4-.33 1-.33 1.42-.08l22.5 11.17c.5.25.85.76.85 1.35V5.68zm-37.63-42.17l-2.78-1.08-7.47 19.74 2.76 1.1 7.48-19.75zm10.16 9.67c.6-.6.6-1.6 0-2.2l-5.97-6.03-2.1 2.18 4.88 4.96-4.87 4.95 2.1 2.2 5.97-6.06zm-23.1 6.05l-5.97-6.05c-.58-.6-.58-1.6 0-2.2l5.97-6.03 2.1 2.18-4.87 4.96 4.87 4.95-2.1 2.2z" stroke="#000" stroke-opacity="0" fill="#fff"/><use xlink:href="#i" transform="matrix(1,0,0,1,-753.3333333333335,41.833333333333485) translate(26.290147569444457 21.52777777777778)"/><use xlink:href="#m" transform="matrix(1,0,0,1,-753.3333333333335,41.833333333333485) translate(118.21723090277777 21.52777777777778)"/><use xlink:href="#n" transform="matrix(1,0,0,1,-753.3333333333335,41.833333333333485) translate(44.25347222222222 53.79340277777778)"/><path d="M-297.93-27.17c0-30.12 24.48-54.6 54.6-54.6s54.6 24.48 54.6 54.6-24.48 54.6-54.6 54.6-54.6-24.48-54.6-54.6zm-5.4 0c0 33.12 26.88 60 60 60 33.12 0 60-26.88 60-60 0-33.12-26.88-60-60-60-33.12 0-60 26.88-60 60zm41.52 30.72h-14.53l17.28-36.24 7.32 15-10.08 21.25zm5.15-43.8c-.48-.96-1.44-1.56-2.4-1.56h-.12c-.96 0-1.92.6-2.4 1.55l-21.6 45.36c-.36.85-.36 1.8.12 2.65.48.72 1.44 1.2 2.28 1.2H-260c.95 0 1.9-.6 2.4-1.56l11.27-23.9c.36-.7.36-1.55 0-2.4l-10.32-21.35zm46.44 43.8h-14.9l-27.1-58.08c-.37-.96-1.33-1.56-2.4-1.56h-9.85v-11.27h19.68L-217.9-9.3c.5.97 1.45 1.57 2.53 1.57h5.16V3.55zm-3.5-16.8l-26.87-57.96c-.48-1.1-1.44-1.7-2.4-1.7h-24.24c-1.45 0-2.65 1.2-2.65 2.77l-.12 16.68c0 .72.36 1.44.84 1.92.48.6 1.2.84 1.92.84h10.8l27.1 58.1c.37.95 1.33 1.55 2.4 1.55h19.33c1.56 0 2.76-1.2 2.76-2.76v-16.7c0-1.43-1.2-2.75-2.77-2.75h-6.12z" stroke="#000" stroke-opacity="0" fill="#7aa116"/><use xlink:href="#e" transform="matrix(1,0,0,1,-333.3333333333335,41.833333333333485) translate(19.660373263888886 21.52777777777778)"/><use xlink:href="#o" transform="matrix(1,0,0,1,-333.3333333333335,41.833333333333485) translate(76.13823784722223 21.52777777777778)"/><path d="M116.67-87.17h120v120h-120v-120z" stroke="#000" stroke-opacity="0" fill="#c925d1"/><path d="M194.8-4.9c-5.03 4.03-15.54 6.2-25.55 6.2-10.08 0-20.6-2.17-25.56-6.2v8.14c0 4.12 10.43 8.65 25.55 8.65 15.05 0 25.56-4.54 25.56-8.66V-4.9zm0-15.46h2.96c0 1.76-.86 3.44-2.66 5.04 2.16 1.85 2.66 3.7 2.66 5.04V3.24c0 7.56-14.7 11.6-28.5 11.6-13.83 0-28.52-4.04-28.6-11.5V-10.3c0-1.35.58-3.2 2.67-5.04-2.1-1.93-2.66-3.7-2.66-5.04v-13.6c0-1.27.57-3.12 2.66-5.05-2.1-1.86-2.66-3.7-2.66-4.97v-13.61c0-7.56 14.76-11.6 28.58-11.6 7.78 0 15.34 1.27 20.6 3.46l-1.16 2.7c-4.9-2.03-12.03-3.2-19.45-3.2-15.12 0-25.56 4.53-25.56 8.64 0 4.04 10.43 8.57 25.55 8.57h1.15l.15 2.93c-.44.1-.87.1-1.3.1-10.08 0-20.6-2.2-25.56-6.23v8.15c0 1.6 1.58 2.94 2.94 3.78 4.04 2.6 11.24 4.37 19.3 4.7l-.15 3.03c-8.14-.42-15.27-2.1-19.88-4.7-1.15.83-2.23 2-2.23 3.27 0 4.1 10.43 8.65 25.55 8.65 1.44 0 2.95-.08 4.32-.17l.22 2.95c-1.45.17-3.04.17-4.55.17-10.08 0-20.6-2.1-25.56-6.13v8.14c0 1.6 1.58 2.94 2.94 3.78 4.6 2.94 13.25 4.78 22.6 4.78h.66v2.95h-.65c-9.5 0-18.14-1.77-23.4-4.7-1.08.83-2.16 2-2.16 3.27 0 4.03 10.43 8.56 25.55 8.56 15.05 0 25.56-4.45 25.56-8.56 0-1.26-1.07-2.44-2.22-3.28-.72.42-1.5.84-2.38 1.18l-1.15-2.77c1.08-.42 2.02-.93 2.8-1.43 1.3-.84 2.96-2.27 2.96-3.78zm12.83-21.76h-8.35c-.5 0-1-.25-1.3-.67-.3-.4-.3-.92-.14-1.42l5.1-12.77H183.6l-9 17.9h9.57c.5 0 .94.26 1.23.6.3.4.36.92.22 1.34l-8.57 26.62 30.6-31.58zm4.6-.5L174.74-3.9c-.3.34-.66.5-1.1.5-.2 0-.5-.08-.7-.25-.66-.33-.87-1-.73-1.68l9.94-30.83h-9.94c-.57 0-1-.25-1.3-.67-.28-.42-.28-1-.06-1.43l10.5-20.83c.22-.5.73-.83 1.3-.83h22.54c.5 0 .94.26 1.22.67.3.42.36.93.15 1.35l-5.12 12.76h9.72c.58 0 1.16.42 1.37.92.3.6.15 1.18-.28 1.6zM145.86 3.83l1.5-2.6c1.8 1.1 4.33 2 7.2 2.68l-.78 2.95c-3.1-.84-5.83-1.84-7.92-3.02zM153.77-17l.8-2.86c-2.9-.67-5.4-1.6-7.2-2.7l-1.52 2.62c2.1 1.17 4.83 2.18 7.92 2.94zm-7.92-26.8l1.5-2.52c1.8 1 4.33 1.93 7.2 2.7l-.78 2.84c-3.1-.75-5.83-1.76-7.92-3.02z" stroke="#000" stroke-opacity="0" fill="#fff"/><use xlink:href="#g" transform="matrix(1,0,0,1,86.66666666666652,41.833333333333485) translate(47.16145833333334 21.52777777777778)"/><use xlink:href="#p" transform="matrix(1,0,0,1,86.66666666666652,41.833333333333485) translate(31.248914930555564 53.79340277777778)"/><path d="M116.67 332.83h120v120h-120v-120z" stroke="#000" stroke-opacity="0" fill="#01a88d"/><path d="M212.7 391.32c-1.68 0-3.02-1.34-3.02-3.02 0-1.6 1.34-2.94 3.02-2.94 1.6 0 2.94 1.34 2.94 2.94 0 1.68-1.34 3.02-2.94 3.02zm-47.88 40.4l-4.87-2.85 10-6.3-1.6-2.52L157 427.1l-8.8-5.12v-13.36l8.3-5.54-1.67-2.52-8.24 5.55-8.9-5.12v-7.3l9.74-5.55-1.52-2.6-8.23 4.7v-5.55l8.98-5.12 9 5.13v5.78l-6.82 4.03 1.6 2.62 6.72-4.04 6.72 4.04 1.5-2.6-6.7-4.04v-5.88l8.3-5.54c.43-.25.68-.76.68-1.26v-10.5h-3.03v9.74l-7.56 5.04-8.9-5.12V363.7l7.47-4.38v12.5h3.02v-14.27l6.12-3.6 11.85 3.94v43.08l-21.76 13.1 1.52 2.53 20.25-12.1v23.28l-11.85 3.95zm44.86-23.85c0 1.6-1.34 2.94-3.03 2.94-1.68 0-3.02-1.34-3.02-2.93 0-1.68 1.34-3.02 3.03-3.02 1.68 0 3.02 1.34 3.02 3.02zm-15.04 14.95c0 1.68-1.34 3.03-2.94 3.03-1.68 0-3.02-1.35-3.02-3.03 0-1.68 1.34-3.02 3.02-3.02 1.6 0 2.94 1.34 2.94 3.02zm-1.5-59.97c0-1.7 1.34-3.03 3.02-3.03s3.02 1.35 3.02 3.03c0 1.67-1.34 3.02-3.03 3.02-1.68 0-3.02-1.35-3.02-3.02zm19.56 19.48c-2.85 0-5.12 1.94-5.8 4.54h-27.2v-7.56h16.46c.84 0 1.5-.66 1.5-1.5v-9.16c2.6-.67 4.54-3.02 4.54-5.8 0-3.35-2.7-6.04-6.04-6.04-3.28 0-5.97 2.7-5.97 6.05 0 2.77 1.92 5.12 4.44 5.8v7.72H179.7V356.8c0-.6-.43-1.18-1.02-1.43l-13.52-4.45c-.42-.17-.84-.1-1.26.08l-17.98 10.5c-.5.34-.75.84-.75 1.35v14.1l-9.75 5.55c-.5.34-.75.76-.75 1.35v17.97c0 .6.25 1 .75 1.35l9.75 5.54v14.12c0 .5.25 1 .75 1.35l17.98 10.5c.25.08.5.16.75.16.17 0 .34 0 .5-.08l13.53-4.45c.6-.25 1-.84 1-1.43V410.8h10.5v6.22c-2.6.68-4.53 3.03-4.53 5.8 0 3.36 2.7 6.05 6.05 6.05 3.28 0 5.97-2.7 5.97-6.05 0-2.77-1.93-5.12-4.54-5.8v-7.72c0-.76-.67-1.43-1.43-1.43h-12v-7.56h18.72l3.2 4.3c-.6.92-.93 2-.93 3.27 0 3.27 2.68 5.96 5.96 5.96 3.35 0 6.04-2.7 6.04-5.96 0-3.36-2.7-6.05-6.04-6.05-1 0-1.94.25-2.78.76l-3.53-4.62c-.25-.42-.75-.6-1.17-.6h-19.5v-7.55h27.23c.68 2.6 2.95 4.55 5.8 4.55 3.28 0 5.97-2.7 5.97-6.05 0-3.28-2.7-5.97-5.97-5.97z" stroke="#000" stroke-opacity="0" fill="#fff"/><use xlink:href="#i" transform="matrix(1,0,0,1,86.66666666666652,461.8333333333335) translate(0.37868923611111427 21.52777777777778)"/><use xlink:href="#q" transform="matrix(1,0,0,1,86.66666666666652,461.8333333333335) translate(92.30577256944443 21.52777777777778)"/><path d="M-1232.72 27.43c1.32-27.12 23-48.6 49.4-48.6 8.9 0 17.7 2.4 25.3 7.2 14.18 8.76 23.2 24.36 24.08 41.4h-98.78zm22.44-82.2c0-14.88 12.1-27 26.95-27s26.95 12.12 26.95 27-12.1 26.88-26.95 26.88-26.95-12-26.95-26.87zm55.22 36.12c-4.84-3-10-5.04-15.4-6.36 11.55-5.05 19.58-16.45 19.58-29.77 0-17.88-14.52-32.4-32.45-32.4-17.93 0-32.45 14.52-32.45 32.4 0 13.32 8.03 24.72 19.58 29.76-24.1 6-42.13 28.43-42.13 55.07 0 1.56 1.2 2.76 2.75 2.76h104.5c1.54 0 2.75-1.2 2.75-2.76 0-19.8-10.23-38.52-26.73-48.72z" stroke="#000" stroke-opacity="0" fill="#232f3e"/><use xlink:href="#r" transform="matrix(1,0,0,1,-1268.3333333333335,41.833333333333485) translate(5.627170138888886 21.52777777777778)"/><use xlink:href="#s" transform="matrix(1,0,0,1,-1268.3333333333335,41.833333333333485) translate(61.46484374999999 21.52777777777778)"/><path d="M-739.72-446.7h-232.6l-.88.08-.84.2-.8.33-.74.47-.66.56-.56.66-.46.73-.33.8-.2.84-.06.88v618l-.08 1-.23 1-.4.92-.52.87-.65.77-.78.67-.86.53-.93.4-1 .23-1 .08h-193.02l-1-.07-1-.24-.92-.4-.87-.53-.77-.66-.67-.76-.53-.87-.4-.94-.23-.98-.08-1V68.83h.94V176.8l.07.9.2.84.34.8.46.74.56.66.66.56.74.45.8.34.84.2.88.06h192.97l.88-.07.84-.2.8-.34.74-.46.67-.56.56-.66.46-.74.32-.8.2-.84.07-.88v-618l.07-1 .24-1 .4-.93.53-.87.66-.78.76-.66.87-.54.93-.4 1-.22 1-.08h232.62zm-443.14 490.53h-.95v-10.5h.94z" stroke="#3a414a" stroke-width=".05" fill="#3a414a"/><path d="M-1182.86 33.35h-.95v-.52h.94z" fill="#3a414a"/><path stroke="#3a414a" stroke-width=".05" fill="#3a414a"/><path d="M-724.95-447.17l-14.27 4.64v-9.27z" fill="#3a414a"/><path d="M-723.4-447.17l-16.3 5.3v-10.6zm-15.34 4l12.25-4-12.24-3.98z" stroke="#3a414a" stroke-width=".05" fill="#3a414a"/><path d="M-1127.83-27.17h388.1" stroke="#3a414a" fill="none"/><path d="M-1127.82-26.7h-3.5v-.94h3.5z" stroke="#3a414a" stroke-width=".05" fill="#3a414a"/><path d="M-724.95-27.17l-14.27 4.64v-9.27z" stroke="#3a414a" fill="#3a414a"/><path d="M-602.83-447.17h283.1" stroke="#3a414a" fill="none"/><path d="M-602.82-446.7h-.5v-.94h.5z" stroke="#3a414a" stroke-width=".05" fill="#3a414a"/><path d="M-304.95-447.17l-14.27 4.64v-9.27z" stroke="#3a414a" fill="#3a414a"/><path d="M-602.83-27.17h283.1" stroke="#3a414a" fill="none"/><path d="M-602.82-26.7h-.5v-.94h.5z" stroke="#3a414a" stroke-width=".05" fill="#3a414a"/><path d="M-304.95-27.17l-14.27 4.64v-9.27z" stroke="#3a414a" fill="#3a414a"/><path d="M-182.83-27.17h283.1" stroke="#3a414a" fill="none"/><path d="M-182.82-26.7h-.53l.02-.47-.02-.47h.53z" stroke="#3a414a" stroke-width=".05" fill="#3a414a"/><path d="M115.05-27.17l-14.27 4.64v-9.27z" stroke="#3a414a" fill="#3a414a"/><path d="M-242.86 386.8l.07.9.2.84.34.8.46.74.56.66.66.56.74.45.8.34.84.2.88.06h337.6v.95h-337.63l-1-.07-1-.24-.92-.4-.87-.53-.77-.66-.67-.76-.53-.87-.4-.94-.23-.98-.08-1V65.83h.94zm0-341.97h-.95v-11.5h.94z" stroke="#3a414a" stroke-width=".05" fill="#3a414a"/><path d="M-242.86 33.35h-.95v-.53h.94z" fill="#3a414a"/><path stroke="#3a414a" stroke-width=".05" fill="#3a414a"/><path d="M115.05 392.83l-14.27 4.64v-9.27z" fill="#3a414a"/><path d="M116.6 392.83l-16.3 5.3v-10.6zm-15.34 4l12.25-4-12.24-3.98z" stroke="#3a414a" stroke-width=".05" fill="#3a414a"/><defs><path fill="#fff" d="M52 0l541-1490h220L1361 0h-200l-149-416H398L254 0H52zm404-582h497c-103-290-145-390-251-756-108 377-145 460-246 756" id="t"/><path fill="#fff" d="M458 0L52-1490h194c108 439 233 855 324 1313 92-459 221-873 331-1313h216c110 438 234 854 330 1307 92-455 216-869 323-1307h196L1558 0h-221l-256-944c-26-95-50-200-73-331-22 122-44 223-73 331L680 0H458" id="u"/><path fill="#fff" d="M657 26c-323 0-524-166-541-416h195c15 169 171 246 346 246 202 0 356-106 356-265 5-203-294-238-475-293-239-73-380-191-380-389 0-252 224-419 512-419 294 0 499 171 508 396H992c-17-145-151-228-328-228-193 0-321 102-321 242 0 156 175 211 284 241l149 41c160 44 422 134 422 412 0 244-197 432-541 432" id="v"/><g id="a"><use transform="matrix(0.008173828125000001,0,0,0.008173828125000001,0,0)" xlink:href="#t"/><use transform="matrix(0.008173828125000001,0,0,0.008173828125000001,10.601455078125001,0)" xlink:href="#u"/><use transform="matrix(0.008173828125000001,0,0,0.008173828125000001,27.096240234375003,0)" xlink:href="#v"/></g><path fill="#fff" d="M763 24c-353 0-583-224-583-531v-983h190v968c0 214 149 370 393 370 243 0 391-156 391-370v-968h190v983c0 307-230 531-581 531" id="w"/><path fill="#fff" d="M538 24C308 24 148-78 108-271l171-41c32 123 123 178 257 178 156 0 256-77 256-169 0-77-54-128-164-154l-186-44c-203-48-300-148-300-305 0-192 176-326 414-326 230 0 351 112 402 269l-163 42c-31-80-94-158-238-158-133 0-233 69-233 162 0 83 57 129 188 160l169 40c203 48 298 149 298 302 0 196-179 339-441 339" id="x"/><path fill="#fff" d="M628 24c-324 0-524-230-524-574 0-343 198-582 503-582 237 0 487 146 487 559v75H286c9 234 145 362 343 362 132 0 231-58 273-172l174 48C1024-91 857 24 628 24zM287-650h624c-17-190-120-322-304-322-192 0-309 151-320 322" id="y"/><path fill="#fff" d="M158 0v-1118h174v172h12c41-113 157-188 290-188 26 0 70 2 91 3v181c-11-2-60-10-108-10-161 0-279 109-279 260V0H158" id="z"/><g id="b"><use transform="matrix(0.008173828125000001,0,0,0.008173828125000001,0,0)" xlink:href="#w"/><use transform="matrix(0.008173828125000001,0,0,0.008173828125000001,12.456914062500001,0)" xlink:href="#x"/><use transform="matrix(0.008173828125000001,0,0,0.008173828125000001,21.292822265625002,0)" xlink:href="#y"/><use transform="matrix(0.008173828125000001,0,0,0.008173828125000001,31.052373046875005,0)" xlink:href="#z"/></g><path fill="#fff" d="M370-1490V0H180v-1490h190" id="A"/><path fill="#fff" d="M338-670V0H158v-1118h173l1 207c72-158 192-221 342-221 226 0 378 139 378 422V0H872v-695c0-172-96-275-252-275-161 0-282 109-282 300" id="B"/><path fill="#fff" d="M598-1118v154H368v674c0 100 37 144 132 144 23 0 62-6 92-12L629-6c-37 13-88 20-134 20-193 0-307-107-307-290v-688H20v-154h168v-266h180v266h230" id="C"/><path fill="#fff" d="M471 26C259 26 90-98 90-318c0-256 228-303 435-329 202-27 287-16 287-108 0-139-79-219-234-219-161 0-248 86-283 164l-173-57c86-203 278-265 451-265 150 0 419 46 419 395V0H815v-152h-12C765-73 660 26 471 26zm31-159c199 0 310-134 310-271v-155c-30 35-226 55-295 64-131 17-246 59-246 186 0 116 97 176 231 176" id="D"/><path fill="#fff" d="M613 24c-304 0-509-231-509-576 0-350 205-580 509-580 216 0 392 114 453 309l-173 49c-33-115-133-197-280-197-223 0-326 196-326 419 0 220 103 415 326 415 150 0 252-85 285-206l172 49C1010-95 832 24 613 24" id="E"/><path fill="#fff" d="M158 0v-1118h180V0H158zm91-1301c-68 0-125-53-125-119s57-119 125-119c69 0 126 53 126 119s-57 119-126 119" id="F"/><path fill="#fff" d="M613 24c-304 0-509-231-509-576 0-350 205-580 509-580 305 0 511 230 511 580 0 345-206 576-511 576zm0-161c226 0 329-195 329-415 0-222-103-419-329-419-223 0-326 196-326 419 0 220 103 415 326 415" id="G"/><g id="c"><use transform="matrix(0.008173828125000001,0,0,0.008173828125000001,0,0)" xlink:href="#A"/><use transform="matrix(0.008173828125000001,0,0,0.008173828125000001,4.495605468750001,0)" xlink:href="#B"/><use transform="matrix(0.008173828125000001,0,0,0.008173828125000001,14.3859375,0)" xlink:href="#C"/><use transform="matrix(0.008173828125000001,0,0,0.008173828125000001,19.69892578125,0)" xlink:href="#y"/><use transform="matrix(0.008173828125000001,0,0,0.008173828125000001,29.458476562500003,0)" xlink:href="#z"/><use transform="matrix(0.008173828125000001,0,0,0.008173828125000001,35.760498046875,0)" xlink:href="#D"/><use transform="matrix(0.008173828125000001,0,0,0.008173828125000001,45.160400390625,0)" xlink:href="#E"/><use transform="matrix(0.008173828125000001,0,0,0.008173828125000001,54.723779296875,0)" xlink:href="#C"/><use transform="matrix(0.008173828125000001,0,0,0.008173828125000001,60.200244140625,0)" xlink:href="#F"/><use transform="matrix(0.008173828125000001,0,0,0.008173828125000001,64.254462890625,0)" xlink:href="#G"/><use transform="matrix(0.008173828125000001,0,0,0.008173828125000001,74.29192382812501,0)" xlink:href="#B"/></g><path fill="#fff" d="M180 0v-1490h901v168H370v510h643v168H370V0H180" id="H"/><path fill="#fff" d="M338-1490V0H158v-1490h180" id="I"/><path fill="#fff" d="M409 0L70-1118h191c89 329 165 560 243 925 75-353 154-601 240-925h192c85 325 161 564 235 922 77-354 157-598 244-922h191L1267 0h-179c-86-307-176-590-250-913C763-588 675-308 588 0H409" id="J"/><g id="d"><use transform="matrix(0.008173828125000001,0,0,0.008173828125000001,0,0)" xlink:href="#H"/><use transform="matrix(0.008173828125000001,0,0,0.008173828125000001,9.882158203125002,0)" xlink:href="#I"/><use transform="matrix(0.008173828125000001,0,0,0.008173828125000001,13.936376953125002,0)" xlink:href="#G"/><use transform="matrix(0.008173828125000001,0,0,0.008173828125000001,23.671406250000004,0)" xlink:href="#J"/></g><path d="M52 0l541-1490h220L1361 0h-200l-149-416H398L254 0H52zm404-582h497c-103-290-145-390-251-756-108 377-145 460-246 756" id="K"/><path d="M458 0L52-1490h194c108 439 233 855 324 1313 92-459 221-873 331-1313h216c110 438 234 854 330 1307 92-455 216-869 323-1307h196L1558 0h-221l-256-944c-26-95-50-200-73-331-22 122-44 223-73 331L680 0H458" id="L"/><path d="M657 26c-323 0-524-166-541-416h195c15 169 171 246 346 246 202 0 356-106 356-265 5-203-294-238-475-293-239-73-380-191-380-389 0-252 224-419 512-419 294 0 499 171 508 396H992c-17-145-151-228-328-228-193 0-321 102-321 242 0 156 175 211 284 241l149 41c160 44 422 134 422 412 0 244-197 432-541 432" id="M"/><g id="e"><use transform="matrix(0.010850694444444444,0,0,0.010850694444444444,0,0)" xlink:href="#K"/><use transform="matrix(0.010850694444444444,0,0,0.010850694444444444,14.073350694444445,0)" xlink:href="#L"/><use transform="matrix(0.010850694444444444,0,0,0.010850694444444444,35.970052083333336,0)" xlink:href="#M"/></g><path d="M783 20c-382 0-661-292-661-764 0-473 279-766 661-766 302 0 548 182 601 489h-190c-42-204-217-313-411-313-268 0-476 208-476 590 0 381 209 588 476 588 195 0 369-110 411-313h190c-52 303-296 489-601 489" id="N"/><path d="M338-1490V0H158v-1490h180" id="O"/><path d="M613 24c-304 0-509-231-509-576 0-350 205-580 509-580 305 0 511 230 511 580 0 345-206 576-511 576zm0-161c226 0 329-195 329-415 0-222-103-419-329-419-223 0-326 196-326 419 0 220 103 415 326 415" id="P"/><path d="M537 14c-226 0-379-139-379-422v-710h180v695c0 172 97 275 253 275 160 0 281-109 281-300v-670h181V0H879v-209C806-46 684 14 537 14" id="Q"/><path d="M577 24c-279 0-473-224-473-580 0-354 195-576 474-576 218 0 287 134 324 193h14v-551h180V0H922v-173h-20C865-111 790 24 577 24zm27-161c203 0 314-172 314-421 0-247-108-413-314-413-212 0-317 181-317 413 0 235 108 421 317 421" id="R"/><g id="f"><use transform="matrix(0.010850694444444444,0,0,0.010850694444444444,0,0)" xlink:href="#N"/><use transform="matrix(0.010850694444444444,0,0,0.010850694444444444,16.23263888888889,0)" xlink:href="#O"/><use transform="matrix(0.010850694444444444,0,0,0.010850694444444444,21.614583333333336,0)" xlink:href="#P"/><use transform="matrix(0.010850694444444444,0,0,0.010850694444444444,34.939236111111114,0)" xlink:href="#Q"/><use transform="matrix(0.010850694444444444,0,0,0.010850694444444444,48.07942708333333,0)" xlink:href="#R"/></g><path d="M158 0v-1118h175l1 205c55-151 181-225 313-225 147 0 245 90 285 228 53-141 190-228 352-228 194 0 352 125 352 384V0h-181v-749c0-161-105-225-225-225-151 0-243 103-243 244V0H807v-767c0-124-93-207-219-207-131 0-250 92-250 270V0H158" id="S"/><path d="M471 26C259 26 90-98 90-318c0-256 228-303 435-329 202-27 287-16 287-108 0-139-79-219-234-219-161 0-248 86-283 164l-173-57c86-203 278-265 451-265 150 0 419 46 419 395V0H815v-152h-12C765-73 660 26 471 26zm31-159c199 0 310-134 310-271v-155c-30 35-226 55-295 64-131 17-246 59-246 186 0 116 97 176 231 176" id="T"/><path d="M126 0v-134l627-806v-11H146v-167h839v143L376-178v11h629V0H126" id="U"/><path d="M338-670V0H158v-1118h173l1 207c72-158 192-221 342-221 226 0 378 139 378 422V0H872v-695c0-172-96-275-252-275-161 0-282 109-282 300" id="V"/><g id="g"><use transform="matrix(0.010850694444444444,0,0,0.010850694444444444,0,0)" xlink:href="#K"/><use transform="matrix(0.010850694444444444,0,0,0.010850694444444444,15.33203125,0)" xlink:href="#S"/><use transform="matrix(0.010850694444444444,0,0,0.010850694444444444,34.79817708333333,0)" xlink:href="#T"/><use transform="matrix(0.010850694444444444,0,0,0.010850694444444444,47.27647569444444,0)" xlink:href="#U"/><use transform="matrix(0.010850694444444444,0,0,0.010850694444444444,59.22309027777778,0)" xlink:href="#P"/><use transform="matrix(0.010850694444444444,0,0,0.010850694444444444,72.54774305555554,0)" xlink:href="#V"/></g><path d="M180 0v-1490h901v168H370v510h643v168H370V0H180" id="W"/><path d="M158 0v-1118h174v172h12c41-113 157-188 290-188 26 0 70 2 91 3v181c-11-2-60-10-108-10-161 0-279 109-279 260V0H158" id="X"/><path d="M598-1118v154H368v674c0 100 37 144 132 144 23 0 62-6 92-12L629-6c-37 13-88 20-134 20-193 0-307-107-307-290v-688H20v-154h168v-266h180v266h230" id="Y"/><g id="h"><use transform="matrix(0.010850694444444444,0,0,0.010850694444444444,0,0)" xlink:href="#N"/><use transform="matrix(0.010850694444444444,0,0,0.010850694444444444,16.23263888888889,0)" xlink:href="#O"/><use transform="matrix(0.010850694444444444,0,0,0.010850694444444444,21.614583333333336,0)" xlink:href="#P"/><use transform="matrix(0.010850694444444444,0,0,0.010850694444444444,34.939236111111114,0)" xlink:href="#Q"/><use transform="matrix(0.010850694444444444,0,0,0.010850694444444444,48.07942708333333,0)" xlink:href="#R"/><use transform="matrix(0.010850694444444444,0,0,0.010850694444444444,61.68619791666667,0)" xlink:href="#W"/><use transform="matrix(0.010850694444444444,0,0,0.010850694444444444,74.15364583333334,0)" xlink:href="#X"/><use transform="matrix(0.010850694444444444,0,0,0.010850694444444444,82.1506076388889,0)" xlink:href="#P"/><use transform="matrix(0.010850694444444444,0,0,0.010850694444444444,95.47526041666666,0)" xlink:href="#V"/><use transform="matrix(0.010850694444444444,0,0,0.010850694444444444,108.60460069444444,0)" xlink:href="#Y"/></g><g id="i"><use transform="matrix(0.010850694444444444,0,0,0.010850694444444444,0,0)" xlink:href="#K"/><use transform="matrix(0.010850694444444444,0,0,0.010850694444444444,15.33203125,0)" xlink:href="#S"/><use transform="matrix(0.010850694444444444,0,0,0.010850694444444444,34.79817708333333,0)" xlink:href="#T"/><use transform="matrix(0.010850694444444444,0,0,0.010850694444444444,47.27647569444444,0)" xlink:href="#U"/><use transform="matrix(0.010850694444444444,0,0,0.010850694444444444,59.22309027777778,0)" xlink:href="#P"/><use transform="matrix(0.010850694444444444,0,0,0.010850694444444444,72.54774305555554,0)" xlink:href="#V"/></g><path d="M635 20c-292 0-500-160-510-396h192c11 142 145 229 315 229 187 0 323-105 323-260 0-161-125-274-346-274H488v-165h121c174 0 294-100 294-254 0-148-104-245-266-245-152 0-291 85-297 230H157c8-234 222-395 484-395 278 0 448 188 448 400 0 168-95 291-247 336v12c190 31 301 169 301 357 0 244-216 425-508 425" id="Z"/><g id="j"><use transform="matrix(0.010850694444444444,0,0,0.010850694444444444,0,0)" xlink:href="#M"/><use transform="matrix(0.010850694444444444,0,0,0.010850694444444444,14.2578125,0)" xlink:href="#Z"/></g><path d="M218-607c0-325 108-727 258-974h175c-155 315-250 682-250 974 0 265 78 531 250 886H476C306-10 218-315 218-607" id="aa"/><path d="M158 0v-1118h180V0H158zm91-1301c-68 0-125-53-125-119s57-119 125-119c69 0 126 53 126 119s-57 119-126 119" id="ab"/><path d="M613 24c-304 0-509-231-509-576 0-350 205-580 509-580 216 0 392 114 453 309l-173 49c-33-115-133-197-280-197-223 0-326 196-326 419 0 220 103 415 326 415 150 0 252-85 285-206l172 49C1010-95 832 24 613 24" id="ac"/><g id="k"><use transform="matrix(0.010850694444444444,0,0,0.010850694444444444,0,0)" xlink:href="#aa"/><use transform="matrix(0.010850694444444444,0,0,0.010850694444444444,8.10546875,0)" xlink:href="#M"/><use transform="matrix(0.010850694444444444,0,0,0.010850694444444444,22.36328125,0)" xlink:href="#Y"/><use transform="matrix(0.010850694444444444,0,0,0.010850694444444444,29.74175347222222,0)" xlink:href="#T"/><use transform="matrix(0.010850694444444444,0,0,0.010850694444444444,42.22005208333333,0)" xlink:href="#Y"/><use transform="matrix(0.010850694444444444,0,0,0.010850694444444444,49.49001736111111,0)" xlink:href="#ab"/><use transform="matrix(0.010850694444444444,0,0,0.010850694444444444,54.87196180555556,0)" xlink:href="#ac"/></g><path d="M628 24c-324 0-524-230-524-574 0-343 198-582 503-582 237 0 487 146 487 559v75H286c9 234 145 362 343 362 132 0 231-58 273-172l174 48C1024-91 857 24 628 24zM287-650h624c-17-190-120-322-304-322-192 0-309 151-320 322" id="ad"/><path d="M96 279C273-86 346-350 346-607c0-292-95-659-250-974h175c150 246 258 650 258 974 0 297-91 602-258 886H96" id="ae"/><g id="l"><use transform="matrix(0.010850694444444444,0,0,0.010850694444444444,0,0)" xlink:href="#M"/><use transform="matrix(0.010850694444444444,0,0,0.010850694444444444,14.2578125,0)" xlink:href="#ab"/><use transform="matrix(0.010850694444444444,0,0,0.010850694444444444,19.639756944444443,0)" xlink:href="#Y"/><use transform="matrix(0.010850694444444444,0,0,0.010850694444444444,26.692708333333332,0)" xlink:href="#ad"/><use transform="matrix(0.010850694444444444,0,0,0.010850694444444444,39.39887152777778,0)" xlink:href="#ae"/></g><path d="M180 0v-1490h510c348 0 508 209 508 474 0 266-160 477-507 477H370V0H180zm190-706h312c236 0 327-133 327-310 0-176-91-307-329-307H370v617" id="af"/><path d="M370-1490V0H180v-1490h190" id="ag"/><g id="m"><use transform="matrix(0.010850694444444444,0,0,0.010850694444444444,0,0)" xlink:href="#K"/><use transform="matrix(0.010850694444444444,0,0,0.010850694444444444,15.33203125,0)" xlink:href="#af"/><use transform="matrix(0.010850694444444444,0,0,0.010850694444444444,29.524739583333332,0)" xlink:href="#ag"/></g><path d="M789 20c-398 0-667-293-667-764 0-473 273-766 655-766 315 0 558 198 612 487h-196c-61-191-204-311-415-311-262 0-471 207-471 590 0 380 208 588 482 588 249 0 420-165 425-427H828v-166h572v163c0 370-256 606-611 606" id="ah"/><path d="M409 0L70-1118h191c89 329 165 560 243 925 75-353 154-601 240-925h192c85 325 161 564 235 922 77-354 157-598 244-922h191L1267 0h-179c-86-307-176-590-250-913C763-588 675-308 588 0H409" id="ai"/><path d="M140 405l46-156c120 36 205 19 263-150l32-93L54-1118h197c107 313 237 620 324 950 87-331 219-637 326-950h196L606 167c-68 178-176 259-334 259-64 0-113-12-132-21" id="aj"/><g id="n"><use transform="matrix(0.010850694444444444,0,0,0.010850694444444444,0,0)" xlink:href="#ah"/><use transform="matrix(0.010850694444444444,0,0,0.010850694444444444,16.57986111111111,0)" xlink:href="#T"/><use transform="matrix(0.010850694444444444,0,0,0.010850694444444444,29.05815972222222,0)" xlink:href="#Y"/><use transform="matrix(0.010850694444444444,0,0,0.010850694444444444,36.11111111111111,0)" xlink:href="#ad"/><use transform="matrix(0.010850694444444444,0,0,0.010850694444444444,48.66536458333333,0)" xlink:href="#ai"/><use transform="matrix(0.010850694444444444,0,0,0.010850694444444444,66.85112847222221,0)" xlink:href="#T"/><use transform="matrix(0.010850694444444444,0,0,0.010850694444444444,79.00390625,0)" xlink:href="#aj"/></g><path d="M180 0v-1490h190v1322h690V0H180" id="ak"/><path d="M677 24c-213 0-288-135-325-197h-20V0H158v-1490h180v551h14c37-59 106-193 324-193 279 0 474 222 474 576 0 356-194 580-473 580zm-27-161c209 0 317-186 317-421 0-232-105-413-317-413-206 0-314 166-314 413 0 249 111 421 314 421" id="al"/><g id="o"><use transform="matrix(0.010850694444444444,0,0,0.010850694444444444,0,0)" xlink:href="#ak"/><use transform="matrix(0.010850694444444444,0,0,0.010850694444444444,12.565104166666666,0)" xlink:href="#T"/><use transform="matrix(0.010850694444444444,0,0,0.010850694444444444,25.04340277777778,0)" xlink:href="#S"/><use transform="matrix(0.010850694444444444,0,0,0.010850694444444444,44.50954861111111,0)" xlink:href="#al"/><use transform="matrix(0.010850694444444444,0,0,0.010850694444444444,58.11631944444444,0)" xlink:href="#R"/><use transform="matrix(0.010850694444444444,0,0,0.010850694444444444,71.72309027777777,0)" xlink:href="#T"/></g><path d="M645 0H180v-1490h484c435 0 692 280 692 742 0 466-257 748-711 748zM370-168h263c363 0 539-218 539-580 0-358-176-574-521-574H370v1154" id="am"/><path d="M180 0v-1490h528c311 0 458 177 458 395 0 191-114 278-244 313v14c139 9 302 137 302 371 0 225-148 397-499 397H180zm190-168h350c232 0 321-102 321-231 0-149-120-277-311-277H370v508zm0-668h328c160 0 286-101 286-255 0-129-87-231-280-231H370v486" id="an"/><g id="p"><use transform="matrix(0.010850694444444444,0,0,0.010850694444444444,0,0)" xlink:href="#am"/><use transform="matrix(0.010850694444444444,0,0,0.010850694444444444,16.03732638888889,0)" xlink:href="#aj"/><use transform="matrix(0.010850694444444444,0,0,0.010850694444444444,28.526475694444443,0)" xlink:href="#V"/><use transform="matrix(0.010850694444444444,0,0,0.010850694444444444,41.65581597222222,0)" xlink:href="#T"/><use transform="matrix(0.010850694444444444,0,0,0.010850694444444444,54.13411458333333,0)" xlink:href="#S"/><use transform="matrix(0.010850694444444444,0,0,0.010850694444444444,73.60026041666666,0)" xlink:href="#P"/><use transform="matrix(0.010850694444444444,0,0,0.010850694444444444,86.92491319444443,0)" xlink:href="#am"/><use transform="matrix(0.010850694444444444,0,0,0.010850694444444444,102.96223958333331,0)" xlink:href="#an"/></g><path d="M158 0v-1490h180v865h22l478-493h223L593-638 1096 0H865L456-523 338-412V0H158" id="ao"/><g id="q"><use transform="matrix(0.010850694444444444,0,0,0.010850694444444444,0,0)" xlink:href="#an"/><use transform="matrix(0.010850694444444444,0,0,0.010850694444444444,14.539930555555555,0)" xlink:href="#ad"/><use transform="matrix(0.010850694444444444,0,0,0.010850694444444444,27.49565972222222,0)" xlink:href="#R"/><use transform="matrix(0.010850694444444444,0,0,0.010850694444444444,41.10243055555556,0)" xlink:href="#X"/><use transform="matrix(0.010850694444444444,0,0,0.010850694444444444,49.09939236111111,0)" xlink:href="#P"/><use transform="matrix(0.010850694444444444,0,0,0.010850694444444444,62.424045138888886,0)" xlink:href="#ac"/><use transform="matrix(0.010850694444444444,0,0,0.010850694444444444,75.11935763888889,0)" xlink:href="#ao"/></g><path d="M763 24c-353 0-583-224-583-531v-983h190v968c0 214 149 370 393 370 243 0 391-156 391-370v-968h190v983c0 307-230 531-581 531" id="ap"/><path d="M538 24C308 24 148-78 108-271l171-41c32 123 123 178 257 178 156 0 256-77 256-169 0-77-54-128-164-154l-186-44c-203-48-300-148-300-305 0-192 176-326 414-326 230 0 351 112 402 269l-163 42c-31-80-94-158-238-158-133 0-233 69-233 162 0 83 57 129 188 160l169 40c203 48 298 149 298 302 0 196-179 339-441 339" id="aq"/><g id="r"><use transform="matrix(0.010850694444444444,0,0,0.010850694444444444,0,0)" xlink:href="#ap"/><use transform="matrix(0.010850694444444444,0,0,0.010850694444444444,16.536458333333332,0)" xlink:href="#aq"/><use transform="matrix(0.010850694444444444,0,0,0.010850694444444444,28.266059027777775,0)" xlink:href="#ad"/><use transform="matrix(0.010850694444444444,0,0,0.010850694444444444,41.22178819444444,0)" xlink:href="#X"/></g><g id="s"><use transform="matrix(0.010850694444444444,0,0,0.010850694444444444,0,0)" xlink:href="#aa"/><use transform="matrix(0.010850694444444444,0,0,0.010850694444444444,8.10546875,0)" xlink:href="#an"/><use transform="matrix(0.010850694444444444,0,0,0.010850694444444444,22.645399305555554,0)" xlink:href="#X"/><use transform="matrix(0.010850694444444444,0,0,0.010850694444444444,30.642361111111114,0)" xlink:href="#P"/><use transform="matrix(0.010850694444444444,0,0,0.010850694444444444,43.56553819444445,0)" xlink:href="#ai"/><use transform="matrix(0.010850694444444444,0,0,0.010850694444444444,61.75130208333334,0)" xlink:href="#aq"/><use transform="matrix(0.010850694444444444,0,0,0.010850694444444444,73.48090277777779,0)" xlink:href="#ad"/><use transform="matrix(0.010850694444444444,0,0,0.010850694444444444,86.43663194444446,0)" xlink:href="#X"/><use transform="matrix(0.010850694444444444,0,0,0.010850694444444444,94.80251736111113,0)" xlink:href="#ae"/></g></defs></g></svg>